inDegrees=no
num_controls=7
num_derivatives=13
num_iterations=83
num_multipliers=7
num_parameters=0
num_slacks=7
num_states=26
objective=0.406251
objective_accelerations=0.060237
objective_balance=0.001726
objective_effort=0.053984
objective_height=0.284123
objective_ligament=0.006181
solver_duration=982.946433
status=Solve_Succeeded
success=true
DataType=double
version=3
OpenSimVersion=4.5
endheader
time	/jointset/ground_pelvis/pelvis_tilt/value	/jointset/ground_pelvis/pelvis_tx/value	/jointset/ground_pelvis/pelvis_ty/value	/jointset/hip_r/hip_flexion_r/value	/jointset/hip_r/hip_adduction_r/value	/jointset/hip_r/hip_rotation_r/value	/jointset/back/lumbar_extension/value	/jointset/patellofemoral_r/patellar_flexion_r/value	/jointset/knee_r/knee_flexion_r/value	/jointset/knee_r/knee_adduction_r/value	/jointset/knee_r/knee_rotation_r/value	/jointset/ankle_r/ankle_angle_r/value	/jointset/subtalar_r/subtalar_angle_r/value	/jointset/ground_pelvis/pelvis_tilt/speed	/jointset/ground_pelvis/pelvis_tx/speed	/jointset/ground_pelvis/pelvis_ty/speed	/jointset/hip_r/hip_flexion_r/speed	/jointset/hip_r/hip_adduction_r/speed	/jointset/hip_r/hip_rotation_r/speed	/jointset/back/lumbar_extension/speed	/jointset/patellofemoral_r/patellar_flexion_r/speed	/jointset/knee_r/knee_flexion_r/speed	/jointset/knee_r/knee_adduction_r/speed	/jointset/knee_r/knee_rotation_r/speed	/jointset/ankle_r/ankle_angle_r/speed	/jointset/subtalar_r/subtalar_angle_r/speed	/forceset/tau_hip_flexion_r	/forceset/tau_hip_adduction_r	/forceset/tau_hip_rotation_r	/forceset/tau_knee_flexion_r	/forceset/tau_ankle_angle_r	/forceset/tau_subtalar_angle_r	/forceset/tau_lumbar_extension	lambda_cid13_p0	lambda_cid14_p0	lambda_cid14_p1	lambda_cid14_p2	lambda_cid14_p3	lambda_cid14_p4	lambda_cid14_p5	/jointset/ground_pelvis/pelvis_tilt/accel	/jointset/ground_pelvis/pelvis_tx/accel	/jointset/ground_pelvis/pelvis_ty/accel	/jointset/hip_r/hip_flexion_r/accel	/jointset/hip_r/hip_adduction_r/accel	/jointset/hip_r/hip_rotation_r/accel	/jointset/back/lumbar_extension/accel	/jointset/patellofemoral_r/patellar_flexion_r/accel	/jointset/knee_r/knee_flexion_r/accel	/jointset/knee_r/knee_adduction_r/accel	/jointset/knee_r/knee_rotation_r/accel	/jointset/ankle_r/ankle_angle_r/accel	/jointset/subtalar_r/subtalar_angle_r/accel	gamma_cid13_p0	gamma_cid14_p0	gamma_cid14_p1	gamma_cid14_p2	gamma_cid14_p3	gamma_cid14_p4	gamma_cid14_p5
1	-0.2525031194937452	-0.03515462326944364	0.3601697871287833	2.181288388434647	-0.2277332123362173	0.1264588205524386	-0.7853887081044238	2.181661458891339	2.181661458891339	-0.1745184829349263	0.1745313255018865	0.3896348157296148	0.166800265193649	0.05211686926795001	0.000502107726312506	0.009797231821346505	-0.07212176751802668	-0.002383183157335977	-0.002563960842036314	0.0002534673117331632	-0.004262999539658873	-0.004262999539658834	-0.0001622185076747624	-0.0001496498888387223	0.01627893581385445	0.003638868424264571	-0.3516372276508213	-0.0254974320028094	-0.01823270020950348	-0.5145686892914456	0.0453735196881964	-0.02536922112799226	0.3675306307060499	-0.02560935365907679	-42.39525153194902	-23.48812091488701	9.931660812219693	17.59164641962505	-797.8155488630746	70.99643557166803	-0.2366419739471918	-0.4213573425610347	2.450778724362552	-6.955560514133087	-0.6625574650416483	-2.548525968019085	0.01567436548275444	-5.716101021727899	-5.716101021727901	-0.0373455096770027	0.02386781913408034	1.21514423448571	-0.5230604553377903	4.81382035895796e-10	-8.007569026092251e-09	-1.857593923694697e-08	2.408916408313578e-08	2.406991333455505e-08	8.208276985734568e-10	-3.760389989388168e-08
1.01	-0.2519941502646729	-0.03517086386071994	0.3603911161942134	2.180217134496452	-0.22778922244403	0.1263069269416217	-0.7853853293858584	2.181330971767339	2.181330971767339	-0.1745210265343415	0.1745295659895937	0.3898589318863865	0.1668124046825756	0.04968006465377095	-0.003762683445153373	0.03454903208339503	-0.1423458198504819	-0.008812830755603518	-0.02782839828518734	0.0004001309284770501	-0.06203036223380534	-0.06203036223380529	-0.000304668739531678	-0.0002048856282325432	0.02855520948123215	-0.001196397615533653	-0.3527828659616092	-0.02527680908477074	-0.01824949935697036	-0.5169774701146409	0.04557634054930081	-0.02548120861548282	0.3687764378267211	-0.02559149305413779	-42.53029153900363	-23.59079403325787	9.982745666659197	17.93255745542658	-800.4417541979348	71.28869505869589	-0.2467346896098426	-0.4308896576042485	2.499451066736419	-7.088346615727302	-0.6322533506279715	-2.517448278083142	0.01084053884634172	-5.836446781745189	-5.836446781745175	0.003571650801445364	-0.02059829230051423	1.235501111173908	-0.4615652071757818	1.159999381660996e-08	-2.575819950647821e-08	-1.707927142702457e-09	6.680546579013264e-08	9.412423127479482e-08	1.370384918203736e-08	9.066702796946017e-08
1.02	-0.2515094560786337	-0.03523012229434377	0.3608623773401861	2.178437136230345	-0.2279093460165083	0.125901979827244	-0.7853811483953096	2.180416932438701	2.1804169324387	-0.1745237413499175	0.1745271783155368	0.3902061372154948	0.1667766304053293	0.04726186066132981	-0.008101460743194622	0.05978364792988319	-0.2138706330999582	-0.01520587609021564	-0.05317466155313918	0.0004139217082704182	-0.1209734404674387	-0.1209734404674387	-0.0001964617417288449	-0.0002752822406014355	0.04089677028101376	-0.005943884810330517	-0.3539285042724002	-0.02505618616673945	-0.0182662985044406	-0.5193862509378362	0.04577916141040333	-0.02559319610298709	0.3700222449473869	-0.02557160643707374	-42.65731114658129	-23.70172794633399	10.04618641446489	18.24234370858984	-802.9757122672577	71.47431475330318	-0.2329218495996006	-0.4361545678761077	2.547341841250482	-7.215712697537315	-0.6552370123105677	-2.564891132979239	-0.01090020190734239	-5.951244129625273	-5.951244129625282	0.01278593625495538	0.02083564453907499	1.228201660966499	-0.5055046863375221	1.67309536822218e-08	-1.755124189970237e-08	1.262484001356046e-08	9.314554291713473e-08	6.710199509365264e-08	-2.71678176921872e-09	1.867817291086159e-07
1.03	-0.251048838971346	-0.03533305244898146	0.361588218630541	2.175936066202889	-0.2280922175510514	0.1252434110516624	-0.7853772509388409	2.178907929863084	2.178907929863084	-0.174524812912134	0.1745223277329441	0.3906768064821636	0.1666954157482529	0.04486754181316344	-0.012488057262063	0.08544720679333948	-0.2864913115416446	-0.02126675285063791	-0.07853879955160709	0.000366235032319565	-0.1809887687047609	-0.180988768704761	-5.253663821429096e-05	-0.0008622710916773656	0.05321711104394493	-0.01013311138524706	-0.35489957345672	-0.02466036988444542	-0.0182289736856949	-0.521693269041777	0.04603461065637364	-0.02555525675750386	0.3711316704882561	-0.02554507801488067	-42.72519203760647	-23.72342866983395	10.07967883544305	18.45483098764286	-805.1473779547734	71.76777854690141	-0.2417882972476703	-0.440427607485515	2.58524841812077	-7.30743567554315	-0.5662419062001876	-2.522127793898649	-0.001603083397661162	-6.050935669038116	-6.050935669038124	0.009971926072713133	-0.1235489694249078	1.230951568174383	-0.3507223109909436	2.1800815058904e-08	-9.0794109450982e-09	2.693173732351743e-08	1.193185157116878e-07	3.908918182963868e-08	-1.943642958205375e-08	2.825683054852797e-07
1.04	-0.2506119853315044	-0.0354799516515264	0.362572572611376	2.172704351339403	-0.2283326436328581	0.1243312103639692	-0.7853738103857218	2.176793922305445	2.176793922305445	-0.1745254899975724	0.1745065906979386	0.3912700794133054	0.166577290691843	0.04250916717209743	-0.01689527032464441	0.1114861860259202	-0.3599996003056835	-0.02671678554274461	-0.1039010439747977	0.0003225410380245379	-0.2419744368721805	-0.2419744368721808	-0.0001175663877791715	-0.00245257272251189	0.0654175031755939	-0.01332596467705312	-0.3558706426410423	-0.02426455360215407	-0.01819164886695565	-0.5240002871457177	0.04629005990234323	-0.02551731741202549	0.3722410960291215	-0.02551655622258447	-42.78543933219442	-23.75405921515272	10.12632048567582	18.63725561249549	-807.2271139716929	71.95406547759031	-0.2257330081795269	-0.4402778766187135	2.622425915075371	-7.39323476200781	-0.5330681986474558	-2.564512417923766	-0.01010166557616332	-6.145312115644784	-6.145312115644775	-0.02900503436091902	-0.1798269114126331	1.204211934710064	-0.3062300297154296	1.826344125463378e-08	-6.614348792672102e-09	2.904042407879825e-08	1.722475249668565e-07	1.154979227650891e-08	-4.433369189912716e-08	2.591411571907384e-07
1.05	-0.2501981861958027	-0.03567085721331024	0.3638191095093495	2.168733498963131	-0.2286249246512063	0.1231659599860415	-0.7853708591102309	2.174065448755449	2.174065448755449	-0.174527183815666	0.1744713591577301	0.3919842821548862	0.166431257742718	0.04029175002238585	-0.021272361716821	0.1378755338948197	-0.434280224196937	-0.03168172524181095	-0.129100563838642	0.0002610090771771286	-0.3038587165620218	-0.3038587165620217	-0.0001925465118962253	-0.004615985107844886	0.0773538473489704	-0.01581691560602773	-0.3566726629358959	-0.02390834335476453	-0.01809465000060099	-0.526398938279536	0.04688592239123527	-0.02537370884847237	0.3732849075616073	-0.02547579062966007	-42.70814380076546	-23.71088849583237	10.15682669179466	18.5509854967638	-809.1732200214393	72.2289317937537	-0.2135844239896143	-0.4344061962049651	2.65532612033755	-7.461881602534091	-0.4695149635441623	-2.490410209148624	-0.00518470874704473	-6.23075526388619	-6.230755263886132	0.007535305699146836	-0.237883357507386	1.177962848178038	-0.2109385688304667	1.445709135095884e-08	-4.336998165314036e-09	3.076791675424552e-08	2.260126603614193e-07	-1.597480278565573e-08	-6.948650466945799e-08	2.319885800002226e-07
1.06	-0.2498053289027225	-0.03590512997415334	0.3653311672655203	2.164016559267976	-0.2289651166881474	0.121750166721768	-0.7853687243038283	2.170713978534908	2.170713978534908	-0.1745287714735689	0.1744138365025849	0.3928157717761057	0.1662622330954349	0.03832079864776969	-0.02556871013649222	0.164590357665354	-0.5092170640821875	-0.03629898926119537	-0.1540096212438399	0.0001592472200130093	-0.3665737709811588	-0.3665737709811583	-9.63343505634723e-05	-0.006910795709727775	0.08887487910341013	-0.01792430430868205	-0.3574746832307513	-0.02355213310737218	-0.01799765113425009	-0.528797589413354	0.04748178488012799	-0.0252301002849138	0.3743287190940909	-0.02543226756915302	-42.62390683234273	-23.67709051582991	10.20092023827789	18.43821657475412	-811.0295570623027	72.39929225463341	-0.1764398531604432	-0.4241292821176393	2.687521095402347	-7.524477960807208	-0.4635330627110726	-2.506419926194473	-0.01814764483948183	-6.311467061503909	-6.311467061503897	0.00523342272905715	-0.2061065547226017	1.12114945092272	-0.2295175844513713	2.021955046628536e-08	3.086232362573404e-09	5.096260616159134e-08	2.907559241246655e-07	-4.321571957405139e-08	-9.315244689013655e-08	3.419928754236414e-07
1.07	-0.24943076464831	-0.03618181142984578	0.3671118919204387	2.158547458390069	-0.2293496500679843	0.1200863933183499	-0.7853676960283442	2.16673146552714	2.16673146552714	-0.1745290655723472	0.1743326016201642	0.3937600082983176	0.1660740399136719	0.03665075233755904	-0.02973916678435313	0.1915982824987064	-0.584665061286708	-0.04054074210594815	-0.1787395294546814	5.128114562616695e-05	-0.4300427355285246	-0.4300427355285247	6.014314043528636e-06	-0.009372610704909658	0.09986508298655875	-0.0196514338828845	-0.3581166554912694	-0.02314032092692735	-0.01785240430761961	-0.531265996983927	0.04839395417609923	-0.02498201871474157	0.3753144056687375	-0.0253744143621478	-42.40956855320673	-23.57099445700996	10.22875331947021	18.07325716624011	-812.7320631381839	72.66263469599667	-0.1534843069559886	-0.4092561967912655	2.71396087295571	-7.564256774471229	-0.3943978403533927	-2.455457063997739	-0.006390098350884403	-6.381702281645121	-6.381702281645199	0.007977746809983631	-0.2715970306078015	1.071851968965767	-0.1348209739174559	2.649098878475032e-08	1.078317990644648e-08	7.213959326744252e-08	3.560831308862459e-07	-7.044154709256571e-08	-1.167393002517911e-07	4.592927491775896e-07
1.08	-0.2490711403144003	-0.03649934792015092	0.3691640023628215	2.152322018305279	-0.2297745812652684	0.1181754846737289	-0.7853676012155244	2.162110844647839	2.162110844647841	-0.1745292877527804	0.174225672976053	0.3948109260817517	0.1658704733701643	0.03533281454716477	-0.03373971705903317	0.2188675151582426	-0.6604849054590968	-0.04437855275054158	-0.2034366694842723	-2.744531326095864e-05	-0.4941953452875784	-0.4941953452875791	-8.195068201101972e-05	-0.01204954804776418	0.1102111313479	-0.02099897665759815	-0.3587586277517875	-0.02272850874648074	-0.01770715748098847	-0.5337344045544996	0.04930612347207033	-0.02473393714456615	0.3763000922433834	-0.02531193936528178	-42.1890149237091	-23.47399938073584	10.26967471935137	17.68645885908104	-814.350161266345	72.82662763734339	-0.106018149197173	-0.3901480074814626	2.739782660639095	-7.598847354380865	-0.3827446226792031	-2.499866289944323	-0.01229972173950411	-6.448196103841478	-6.448196103841485	-0.03282930940323665	-0.2491310242571193	0.9923183465612722	-0.1536002245536129	2.735612222891387e-08	1.645202657881764e-08	8.230068641432747e-08	3.961375920968898e-07	-9.346000902125129e-08	-1.355750123874224e-07	4.875739300373872e-07
